<svg width="178" height="178" viewBox="0 0 178 178" fill="none" xmlns="http://www.w3.org/2000/svg">
<path d="M52.9133 14.7267C48.95 14.7824 46.8641 20.776 43.0121 28.3688C39.5911 35.1272 31.6785 49.9235 29.9263 52.3431C28.1602 54.7628 23.3347 56.5289 22.7785 57.8361C22.2222 59.1572 59.63 57.9891 59.63 57.9891L80.851 55.6389C80.851 55.6389 78.028 53.2053 75.358 49.8122C73.0774 46.9197 64.1357 31.011 60.6174 24.4055C58.4341 20.317 56.3343 14.685 52.9133 14.7267Z" fill="#F687A9"/>
<path d="M27.6317 65.2759C27.6317 65.2759 21.3321 61.5908 21.6937 58.9764C21.9718 56.9322 25.7682 55.5972 25.7682 55.5972L80.4893 55.3191C80.4893 55.3191 85.1201 57.6136 85.1201 59.9637C85.1201 62.4808 79.1543 65.6931 79.1543 65.6931L76.985 60.2975L31.0109 60.3809L27.6317 65.2759Z" fill="#EF5593"/>
<path d="M53.4279 81.7966C51.926 81.727 50.6049 82.2972 50.4241 84.1745C50.2712 85.7459 51.6201 86.9975 52.9968 87.0531C54.3735 87.1226 55.6946 86.2326 55.7502 84.6751C55.8058 83.2289 54.9993 81.8522 53.4279 81.7966Z" fill="#FEA62D"/>
<path d="M55.4859 60.9511C53.1775 60.52 53.1079 62.9953 53.1079 62.9953C53.1079 62.9953 49.9651 62.6476 47.7401 65.7209C45.4317 68.9333 45.7932 74.4262 44.9171 76.0533C44.0411 77.6803 41.2876 79.5576 41.3432 80.0583C41.4128 80.5589 43.4987 82.4919 52.6351 83.1315C61.7437 83.7712 64.4554 82.8117 64.5806 82.1859C64.7057 81.5601 62.2026 79.5576 61.8828 77.7359C61.5629 75.9142 62.6615 70.2822 61.4795 67.2923C60.1584 63.927 57.0573 63.3847 57.0573 63.3847C57.0573 63.3847 57.5301 61.3265 55.4859 60.9511Z" fill="#FEB804"/>
<path d="M45.4178 74.3289C45.4178 74.3289 48.491 75.1633 53.1496 75.5249C58.9068 75.9699 61.8688 75.8308 61.8688 75.8308C61.8688 75.8308 61.8271 77.0684 61.9662 77.6942C62.1192 78.32 62.8145 79.6689 62.8145 79.6689C62.8145 79.6689 58.4618 79.8497 53.0384 79.363C47.6288 78.8763 43.3735 77.9028 43.3735 77.9028C43.3735 77.9028 44.7363 76.5539 44.9032 76.0672C45.084 75.5666 45.4178 74.3289 45.4178 74.3289Z" fill="#FEA62D"/>
<path d="M79.3212 59.2823C79.3212 59.2823 27.437 59.338 27.3397 59.5188C27.2006 59.8108 27.2145 64.08 27.2145 64.08L36.6151 95.4803L73.564 95.5638L79.2239 63.8297L79.3212 59.2823ZM66.0825 91.7395L40.8426 91.6839C40.8426 91.6839 40.6757 77.1658 41.5936 71.5338C42.275 67.3619 45.7793 62.0914 54.0953 61.9802C62.4112 61.8689 65.3454 68.2658 65.9295 71.6311C66.4997 75.0103 66.0825 91.7395 66.0825 91.7395Z" fill="#BFB5B3"/>
<path d="M27.1729 98.3033V64.0105H30.7746L33.5141 99.2489L27.1729 98.3033Z" fill="#5F4D4E"/>
<path d="M79.2378 97.3994L79.2517 63.8297L75.9559 63.8158L72.9521 98.943L79.2378 97.3994Z" fill="#5F4D4E"/>
<path d="M30.7606 98.4563L30.7745 64.0105H41.0095C41.0095 64.0105 38.4925 67.6817 38.3952 71.937C38.2978 76.1089 38.1031 94.3817 38.1031 94.3817L69.4617 94.187C69.4617 94.187 69.2809 72.8409 69.0723 70.3795C68.7803 66.8891 65.9712 63.8992 65.9712 63.8992L75.942 63.8019V99.6105L30.7606 98.4563Z" fill="#EBE7E6"/>
<path d="M11.4727 119.26L5.28442 117.855L21.0124 97.2881H157.002C157.002 97.2881 172.702 116.993 172.632 117.216C172.577 117.438 172.062 118.008 172.062 118.008L42.5254 121.749L11.4727 119.26Z" fill="#F687A9"/>
<path d="M11.8481 122.041V129.648L31.1778 170.616H164.733C166.374 170.616 167.056 168.822 167.056 167.96C167.056 167.097 166.945 122.639 166.945 122.639L154.61 120.067L75.9977 120.442L54.2483 101.112L29.5508 120.623L11.8481 122.041Z" fill="#C0B5B1"/>
<path d="M11.8481 129.648C11.8481 129.648 11.6256 170.06 11.6256 170.755C11.6256 171.45 25.0451 169.615 25.0451 169.615L28.0072 162.342L61.41 152.26L89.9317 169.962L85.1201 139.674L81.3655 136.379L25.518 137.533L20.2753 142.553L15.4498 129.704L11.8481 129.648Z" fill="#5F4D4E"/>
<path d="M166.986 128.619H161.994L156.487 157.252L162.648 164.9H167.056L166.986 128.619Z" fill="#5F4D4E"/>
<path d="M15.4638 129.676H22.3474L22.0414 166.889L15.6445 165.651C15.6306 165.637 15.3803 129.606 15.4638 129.676Z" fill="#EBE7E6"/>
<path d="M25.5458 164.372V137.519L53.1358 112.043L81.3933 136.379V165.512H27.4927L25.5458 164.372Z" fill="#EBE7E6"/>
<path d="M84.7308 164.942V128.438H162.953V164.886C162.94 164.9 84.7308 165.165 84.7308 164.942Z" fill="#EBE7E6"/>
<path d="M129.634 161.646C129.801 161.952 145.793 161.744 146.141 161.605C146.627 161.424 146.335 140.606 146.377 138.687C146.447 135.753 144.013 130.635 138.006 130.691C131.998 130.747 129.69 135.363 129.634 138.423C129.578 141.135 129.398 161.215 129.634 161.646Z" fill="#A5D0D6"/>
<path d="M120.053 161.521C119.872 161.702 103.977 161.744 103.588 161.479C103.198 161.215 103.435 143.485 103.56 139.076C103.643 136.198 105.729 130.76 111.737 130.83C117.744 130.9 119.914 135.822 119.983 138.757C120.053 141.691 120.428 161.132 120.053 161.521Z" fill="#A5D0D6"/>
<path d="M38.7985 170.63C38.7985 170.143 39.1461 154.415 39.1461 150.466C39.1461 144.848 43.3458 138.186 53.2192 138.242C63.343 138.298 66.5414 146.266 66.5414 150.827C66.5414 154.04 66.458 170.602 66.458 170.602L38.7985 170.63Z" fill="#D27856"/>
<path d="M64.7197 151.801C64.6641 147.239 61.3822 139.994 52.8438 139.939H52.7186C44.1246 139.939 40.8983 146.906 40.8288 151.62C40.7731 155.013 40.7036 168.099 40.7036 168.099V168.933H64.525L64.5389 168.113C64.5389 168.001 64.7892 156.334 64.7197 151.801ZM42.5114 151.648C42.5531 148.922 44.4027 141.983 52.1624 141.635V167.264H42.4002C42.4141 164.33 42.4697 154.512 42.5114 151.648ZM62.8841 167.278H53.9006V141.677C60.4505 142.303 63.0092 148.102 63.051 151.828C63.1066 155.625 62.9397 164.539 62.8841 167.278Z" fill="#AE5734"/>
<path d="M55.3191 152.176C55.0549 152.51 55.1244 159.06 55.3747 159.227C55.6806 159.449 57.4885 159.449 57.7666 159.199C58.0447 158.948 58.0447 152.371 57.8639 152.162C57.6553 151.954 55.6111 151.801 55.3191 152.176Z" fill="#FAC010"/>
<path d="M48.2685 152.065C48.0043 152.399 48.0739 158.948 48.3242 159.115C48.6301 159.338 50.4379 159.338 50.716 159.088C50.9942 158.837 50.9942 152.26 50.8134 152.051C50.6048 151.842 48.5606 151.689 48.2685 152.065Z" fill="#FAC010"/>
<path d="M14.7267 172.563C18.1198 172.73 30.0236 172.493 32.2069 172.424C34.4041 172.354 35.1411 170.296 33.7366 167.57C32.6797 165.512 30.1488 163.718 27.4927 163.315C24.8366 162.912 22.5003 164.177 21.9719 164.052C21.4434 163.927 19.1072 162.661 16.1173 163.19C13.1275 163.718 11.0694 166.055 11.125 168.905C11.2084 171.77 13.3361 172.493 14.7267 172.563Z" fill="#709923"/>
<path d="M71.3112 169.907C71.353 171.77 74.5097 171.812 83.0203 171.937C91.5309 172.076 94.2566 172.243 94.187 167.64C94.1175 163.19 91.3919 161.062 88.6662 161.062C85.9406 161.062 83.952 162.189 83.0759 162.328C82.2137 162.467 80.7675 160.311 77.2909 161.438C74.5931 162.314 71.2417 167.306 71.3112 169.907Z" fill="#709923"/>
<path d="M35.3914 137.797C34.6126 137.422 32.6935 137.422 30.3712 140.745C28.6329 143.22 28.9249 146.572 29.1614 146.697C29.3978 146.822 32.624 146.294 34.4735 144.333C36.3231 142.358 36.4899 138.325 35.3914 137.797Z" fill="#709923"/>
<path d="M34.7238 155.472C35.586 155.375 37.5468 152.579 37.2687 149.298C36.9767 146.002 34.9046 144.041 34.2649 144.166C33.6253 144.277 32.179 145.946 32.1234 148.964C32.0678 152.927 34.2093 155.528 34.7238 155.472Z" fill="#709923"/>
<path d="M71.3113 139.09C71.0749 139.647 69.573 143.36 72.2291 146.363C74.5653 149.005 75.3441 150.229 76.095 150.229C76.846 150.229 77.4856 145.209 76.3314 142.72C75.1772 140.245 71.4781 138.687 71.3113 139.09Z" fill="#709923"/>
<path d="M71.1861 157.405C71.7424 157.266 73.133 153.761 73.3277 151.119C73.578 147.545 71.8814 145.056 71.8814 145.056C71.8814 145.056 68.1824 145.918 68.1824 150.938C68.1824 156.07 70.7272 157.516 71.1861 157.405Z" fill="#709923"/>
<path d="M41.5936 124.544C40.342 125.615 39.4798 129.064 41.1347 131.219C42.7478 133.333 45.4873 133.208 46.9614 132.193C48.4354 131.178 48.4772 127.298 47.17 125.518C45.8628 123.738 43.0259 123.321 41.5936 124.544Z" fill="#FFB1D1"/>
<path d="M62.4112 124.072C60.5061 124.197 57.9334 127.367 59.032 130.149C60.1306 132.93 64.1495 133.069 65.3733 132.346C66.597 131.623 68.0293 129.231 67.4453 127.145C66.9725 125.518 64.2329 123.96 62.4112 124.072Z" fill="#FFB1D1"/>
<path d="M62.0775 126.908C61.3127 127.451 61.1041 128.897 61.8689 129.565C62.6338 130.246 63.7323 130.204 64.3164 129.606C64.9978 128.897 64.9144 127.743 64.3581 127.117C63.8019 126.477 62.7033 126.45 62.0775 126.908Z" fill="#F687A9"/>
<path d="M43.1233 127.034C42.5114 127.645 42.5253 128.855 43.2067 129.523C43.8881 130.204 44.8337 130.079 45.5012 129.606C46.2244 129.078 46.1409 127.604 45.4734 127.061C44.9033 126.616 43.9159 126.241 43.1233 127.034Z" fill="#F687A9"/>
<path d="M52.6491 121.847C52.6491 121.847 54.4847 121.638 55.9449 122.153C58.0725 122.903 58.9208 125.393 58.74 126.491C58.601 127.367 58.1421 129.773 58.1421 129.773L55.0688 131.386L51.2724 130.635L48.6997 128.744C48.6997 128.744 48.7553 124.614 48.8388 124.558C48.9222 124.489 52.6491 121.847 52.6491 121.847Z" fill="#F687A9"/>
<path d="M68.8499 131.47L65.3594 132.346L63.5933 136.212C63.5933 136.212 63.2318 140.245 66.7917 141.566C69.9902 142.748 71.5755 140.954 71.5755 140.954L73.4111 137.797L73.4807 135.419L72.0483 132.29L68.8499 131.47Z" fill="#F687A9"/>
<path d="M41.2877 137.157C41.2877 137.157 40.1057 140.578 35.9616 139.633C31.8314 138.701 32.8744 132.763 32.8744 132.763L35.1411 130.357L37.6164 129.926L40.0222 130.468L41.7883 132.846L41.6771 135.044L41.2877 137.157Z" fill="#F687A9"/>
<path d="M74.3428 135.906C74.1898 134.084 73.3415 132.568 71.9648 131.637C70.8245 130.872 69.4339 130.621 68.0293 130.858C68.4907 129.8 68.5992 128.621 68.3387 127.497C68.0782 126.372 67.4627 125.361 66.5831 124.614C64.6223 122.973 61.0067 123.14 59.4075 124.934C58.5453 125.907 58.0307 127.284 58.1976 128.8C58.1976 128.8 56.2507 130.969 52.9689 130.538C51.5504 130.343 50.4935 129.704 49.8956 128.688C49.2976 127.673 49.2281 126.324 49.7148 125.101C50.1598 123.974 51.3001 123.154 51.8981 122.973C53.1357 122.611 54.5681 122.75 55.3746 123.335C56.4732 124.127 56.4871 126.116 56.0421 126.908C55.4581 127.938 54.3734 128.202 53.5946 127.993C53.3304 127.924 52.7324 127.701 52.7324 127.075C52.7324 126.797 52.8437 126.533 53.0523 126.394C53.3304 126.199 53.692 126.158 53.9284 126.255C54.137 126.338 54.6654 126.31 54.7767 125.796C54.9018 125.212 54.4012 124.975 54.2204 124.906C54.0396 124.836 53.0245 124.572 52.1901 125.156C51.8146 125.42 51.3001 125.893 51.3001 126.992C51.3001 128.063 52.0789 129.036 53.2331 129.328C54.4985 129.662 56.2925 129.259 57.2381 127.576C58.0446 126.144 57.836 123.376 56.1673 122.18C55.0131 121.36 53.1357 121.137 51.4809 121.624C50.0068 122.055 48.8804 123.321 48.3937 124.572C48.2685 124.878 48.199 125.198 48.1295 125.518C47.7401 124.364 45.6959 122.959 42.7199 123.933C39.146 125.101 39.1182 128.23 39.4937 129.481C38.1031 128.911 36.5039 128.911 35.4053 129.412C34.112 129.996 33.0551 131.372 32.7075 132.916C32.3737 134.432 32.7214 135.906 33.7087 137.074C34.3901 137.88 35.3079 138.186 36.2118 138.186C37.0879 138.186 37.9362 137.894 38.5064 137.477C39.3129 136.879 39.8275 135.836 39.7857 134.765C39.7579 133.875 39.3268 133.138 38.7706 132.777C38.2699 132.471 37.6581 132.332 37.1435 132.471C36.1423 132.735 35.7946 133.5 35.7251 133.611C35.6695 133.736 35.2523 134.613 35.8642 134.918C36.476 135.224 36.7403 134.654 36.8237 134.585C36.9071 134.515 37.1296 134.056 37.4634 133.917C37.6164 133.862 37.825 133.834 38.0335 133.959C38.1587 134.042 38.3951 134.348 38.4229 134.835C38.4368 135.127 38.3256 135.892 37.6998 136.365C37.0879 136.81 35.5304 137.046 34.7378 136.1C34.0424 135.266 33.8617 134.307 34.0981 133.236C34.3484 132.109 35.0993 131.205 35.9893 130.76C37.2131 130.149 39.2851 130.385 40.3698 131.762C41.9412 133.764 40.7592 136.851 40.7453 136.879C40.7453 136.879 40.5645 137.394 40.8704 137.533C41.1764 137.672 41.4962 137.283 41.4962 137.283C41.5518 137.157 42.8451 135.127 42.3723 132.888C43.0398 133.236 43.7907 133.444 44.5973 133.444C45.2509 133.444 45.9462 133.305 46.6693 133.013C47.7123 132.582 48.4632 131.803 48.8526 130.774C48.9639 130.496 49.0195 130.204 49.0751 129.912C49.9234 130.997 51.1889 131.72 52.7742 131.929C53.1775 131.984 53.5529 132.012 53.9284 132.012C56.2229 132.012 57.7526 131.053 58.5314 130.413C58.879 131.317 59.477 132.068 60.3253 132.596C61.4378 133.305 62.5503 133.597 63.5793 133.597C63.8296 133.597 64.08 133.556 64.3164 133.528C64.0104 134.07 63.7879 134.668 63.6767 135.294C63.3985 136.963 63.9409 138.451 65.1646 139.368C66.5275 140.384 68.1823 140.467 69.406 139.772C70.6159 139.09 71.2417 137.714 71.0331 136.337C70.8245 134.891 70.0318 134.348 69.5729 134.14C68.9332 133.862 68.1545 133.917 67.6121 134.293C66.6526 134.96 66.6109 136.073 66.736 136.629C66.736 136.629 66.8334 137.366 67.5287 137.241C68.3075 137.102 68.0849 136.309 68.0849 136.309C68.071 136.253 67.9459 135.711 68.3631 135.419C68.4604 135.35 68.7385 135.294 69.0028 135.405C69.3226 135.544 69.559 135.948 69.6285 136.518C69.7398 137.338 69.3643 138.131 68.669 138.548C67.8625 139.021 66.889 138.91 65.9712 138.228C65.1785 137.63 64.8309 136.643 65.0256 135.489C65.2759 134.028 66.3328 132.735 67.5843 132.346C68.8498 131.943 70.157 132.109 71.1721 132.791C72.1873 133.472 72.8131 134.613 72.9382 136.017C73.1885 138.993 71.0331 140.787 70.9218 140.856C70.9218 140.856 70.5185 141.19 70.6298 141.482C70.741 141.774 71.2 141.538 71.2 141.538C71.3668 141.454 74.6765 139.772 74.3428 135.906ZM47.462 130.065C47.2117 130.747 46.7389 131.219 46.0435 131.511C43.6656 132.485 41.9273 131.289 41.0929 129.759C40.6201 128.911 40.342 126.366 43.2484 125.198C45.0562 124.475 46.5303 125.295 47.2534 126.728C47.7262 127.659 47.8792 128.953 47.462 130.065ZM66.2771 131.094C65.4706 131.915 63.4542 132.916 61.0623 131.414C60.2557 130.9 59.769 130.135 59.63 129.147C59.4492 127.84 59.922 126.491 60.4504 125.879C61.5629 124.628 64.3025 124.53 65.6931 125.699C66.5414 126.408 67.0281 127.437 67.0837 128.591C67.1254 129.578 66.8334 130.524 66.2771 131.094Z" fill="#BF077C"/>
<path d="M11.125 123.084C11.125 123.084 4.8255 118.148 5.28441 117.855C5.74331 117.563 29.5508 117.869 29.5508 117.869C29.5508 117.869 50.5214 99.0403 51.2446 98.3311C51.9677 97.6219 52.6074 97.1908 53.6782 97.1908C54.7489 97.1908 56.0422 98.3311 56.9044 98.9847C57.7666 99.6244 78.0975 117.814 78.0975 117.814C78.0975 117.814 172.841 116.785 172.66 117.23C172.479 117.675 167.264 123.543 167.264 123.543H85.0228C85.0228 123.543 90.3489 127.645 90.1682 127.91C89.9874 128.174 86.4969 133.583 85.9824 133.583C85.4539 133.583 53.4139 105.729 53.4139 105.729L21.1932 134.793L16.5624 129.467L23.7241 123.182L11.125 123.084Z" fill="#EF5593"/>
<path d="M95.4386 59.7691C95.4386 59.7691 101.599 57.5997 105.062 60.5895C108.886 63.8992 108.191 67.7652 108.191 67.7652L112.515 62.0914C112.515 62.0914 119.955 59.2823 123.001 65.7905C125.796 71.7702 121.513 78.0558 116.479 82.172C110.791 86.8306 104.172 89.2225 104.172 89.2225L103.894 86.8584L95.4386 59.7691Z" fill="#D82E75"/>
<path d="M106.897 67.6817C106.897 67.6817 104.7 56.8349 96.0643 59.5466C90.0151 61.4378 90.5853 69.5452 92.8103 74.2316C96.0087 80.9622 104.172 89.2225 104.172 89.2225C104.172 89.2225 110.471 85.3149 115.436 80.545C118.843 77.277 125.128 68.2102 119.051 63.343C112.098 57.7666 106.897 67.6817 106.897 67.6817Z" fill="#EF5593"/>
<path d="M94.938 69.5174C95.5498 69.4339 95.9114 66.3189 97.7192 65.4011C99.235 64.6502 100.82 63.7602 100.028 62.2305C99.2767 60.7703 96.6345 61.3405 95.2578 63.1344C93.2831 65.7349 93.5612 69.6981 94.938 69.5174Z" fill="#F687A9"/>
<path d="M110.805 67.9598C111.083 68.4605 113.113 68.0572 114.532 67.1115C115.714 66.3328 116.604 64.9839 115.672 64.1773C114.727 63.3708 113.127 63.9409 112.362 64.5528C111.097 65.5958 110.388 67.195 110.805 67.9598Z" fill="#F687A9"/>
<path d="M124.197 16.5763C124.197 16.5763 130.858 14.3652 135.975 18.6622C140.731 22.6533 141.301 28.0767 141.301 28.0767L148.936 20.4005C148.936 20.4005 160.492 16.9935 164.803 26.4775C168.933 35.5861 161.952 46.2522 153.998 52.7742C145.014 60.1445 134.042 63.7185 134.042 63.7185L124.197 16.5763Z" fill="#D82E75"/>
<path d="M138.868 29.8706C138.868 29.8706 136.087 12.015 122.027 17.0908C112.098 20.6786 113.099 32.8187 116.618 40.2308C121.666 50.8691 134.028 63.7045 134.028 63.7045C134.028 63.7045 145.014 57.4884 152.371 50.2155C155.694 46.9336 160.937 40.2447 161.938 33.6809C162.55 29.7455 161.813 24.9617 158.003 22.3473C146.363 14.3651 138.868 29.8706 138.868 29.8706Z" fill="#EF5593"/>
<path d="M120.011 32.8744C120.984 32.7492 121.554 27.8125 124.419 26.3802C126.811 25.1842 129.467 24.1134 128.063 21.36C126.894 19.0516 122.222 19.8303 120.053 22.6672C116.924 26.7834 117.842 33.1525 120.011 32.8744Z" fill="#F687A9"/>
<path d="M145.612 29.9124C146.057 30.6911 149.27 30.0653 151.509 28.5634C153.372 27.3258 154.79 25.1981 153.302 23.9327C151.815 22.6672 149.27 23.5572 148.074 24.5306C146.057 26.1716 144.931 28.7164 145.612 29.9124Z" fill="#F687A9"/>
</svg>
