<svg width="33" height="33" viewBox="0 0 33 33" fill="none" xmlns="http://www.w3.org/2000/svg">
<path d="M28.875 11L23.9789 13.7201C21.2492 15.2365 19.8844 15.9948 18.439 16.2921C17.1597 16.5551 15.8403 16.5551 14.561 16.2921C13.1156 15.9948 11.7508 15.2365 9.0211 13.7201L4.125 11M8.525 26.125H24.475C26.0151 26.125 26.7853 26.125 27.3735 25.8252C27.8909 25.5617 28.3117 25.1409 28.5752 24.6235C28.875 24.0353 28.875 23.2651 28.875 21.725V11.275C28.875 9.73486 28.875 8.96478 28.5752 8.37653C28.3117 7.85907 27.8909 7.43838 27.3735 7.17474C26.7853 6.875 26.0151 6.875 24.475 6.875H8.525C6.98486 6.875 6.21478 6.875 5.62653 7.17474C5.10907 7.43838 4.68838 7.85907 4.42474 8.37653C4.125 8.96478 4.125 9.73485 4.125 11.275V21.725C4.125 23.2651 4.125 24.0353 4.42474 24.6235C4.68838 25.1409 5.10907 25.5617 5.62653 25.8252C6.21478 26.125 6.98485 26.125 8.525 26.125Z" stroke="black" stroke-width="3" stroke-linecap="round" stroke-linejoin="round"/>
</svg>
